<svg width="62" height="62" viewBox="0 0 62 62" fill="none" xmlns="http://www.w3.org/2000/svg">
<g clip-path="url(#clip0_252_9)">
<path d="M23.25 1.07628C23.6273 1.53639 23.8584 2.09879 23.9136 2.69123C23.9689 3.28368 23.8457 3.87911 23.56 4.40103C21.3185 8.51376 20.1484 13.1246 20.1578 17.8085C20.1578 33.3899 32.86 46.0069 48.515 46.0069C50.561 46.0043 52.5411 45.7977 54.4554 45.3869C55.041 45.2616 55.6505 45.3109 56.2084 45.5285C56.7663 45.7462 57.2481 46.1227 57.5941 46.6114C57.9602 47.12 58.1471 47.7358 58.1253 48.3621C58.1036 48.9884 57.8745 49.5898 57.474 50.0718C54.4346 53.8049 50.6005 56.8127 46.2512 58.8761C41.9019 60.9395 37.1469 62.0064 32.333 61.999C14.4692 61.999 0 47.6073 0 29.8753C0 16.5298 8.19175 5.08303 19.8555 0.231532C20.4363 -0.0153051 21.0817 -0.0663825 21.6941 0.0860188C22.3065 0.23842 22.8526 0.586018 23.25 1.07628Z" fill="#FF6B6B"/>
<path d="M41.8259 12.2005C41.8815 12.0327 41.9885 11.8867 42.1318 11.7832C42.2751 11.6797 42.4474 11.624 42.6241 11.624C42.8009 11.624 42.9732 11.6797 43.1165 11.7832C43.2598 11.8867 43.3668 12.0327 43.4224 12.2005L44.922 16.7033C45.5924 18.7105 47.1656 20.2838 49.1729 20.9541L53.6756 22.4538C53.8435 22.5093 53.9895 22.6164 54.093 22.7597C54.1965 22.903 54.2522 23.0752 54.2522 23.252C54.2522 23.4288 54.1965 23.6011 54.093 23.7444C53.9895 23.8877 53.8435 23.9947 53.6756 24.0503L49.1729 25.5499C48.1823 25.8786 47.2822 26.4341 46.5442 27.1721C45.8063 27.9101 45.2508 28.8102 44.922 29.8008L43.4224 34.3035C43.3668 34.4713 43.2598 34.6173 43.1165 34.7208C42.9732 34.8243 42.8009 34.8801 42.6241 34.8801C42.4474 34.8801 42.2751 34.8243 42.1318 34.7208C41.9885 34.6173 41.8815 34.4713 41.8259 34.3035L40.3263 29.8008C39.9975 28.8102 39.442 27.9101 38.704 27.1721C37.966 26.4341 37.0659 25.8786 36.0754 25.5499L31.5726 24.0503C31.4048 23.9947 31.2588 23.8877 31.1553 23.7444C31.0518 23.6011 30.9961 23.4288 30.9961 23.252C30.9961 23.0752 31.0518 22.903 31.1553 22.7597C31.2588 22.6164 31.4048 22.5093 31.5726 22.4538L36.0754 20.9541C37.0659 20.6254 37.966 20.0699 38.704 19.3319C39.442 18.5939 39.9975 17.6938 40.3263 16.7033L41.8259 12.2005ZM53.7183 0.385635C53.7565 0.2753 53.8282 0.179624 53.9233 0.111911C54.0185 0.0441984 54.1324 0.0078125 54.2491 0.0078125C54.3659 0.0078125 54.4798 0.0441984 54.5749 0.111911C54.6701 0.179624 54.7418 0.2753 54.78 0.385635L55.7798 3.38489C56.2254 4.72563 57.2755 5.77576 58.6163 6.22138L61.6155 7.22113C61.7259 7.25939 61.8215 7.33107 61.8892 7.42621C61.957 7.52135 61.9933 7.63523 61.9933 7.75201C61.9933 7.86879 61.957 7.98267 61.8892 8.07781C61.8215 8.17295 61.7259 8.24463 61.6155 8.28289L58.6163 9.28263C57.9561 9.50351 57.3563 9.87469 56.8641 10.3669C56.3718 10.8592 56.0006 11.459 55.7798 12.1191L54.78 15.1184C54.7418 15.2287 54.6701 15.3244 54.5749 15.3921C54.4798 15.4598 54.3659 15.4962 54.2491 15.4962C54.1324 15.4962 54.0185 15.4598 53.9233 15.3921C53.8282 15.3244 53.7565 15.2287 53.7183 15.1184L52.7185 12.1191C52.4976 11.459 52.1265 10.8592 51.6342 10.3669C51.142 9.87469 50.5422 9.50351 49.882 9.28263L46.8828 8.28289C46.7724 8.24463 46.6768 8.17295 46.609 8.07781C46.5413 7.98267 46.5049 7.86879 46.5049 7.75201C46.5049 7.63523 46.5413 7.52135 46.609 7.42621C46.6768 7.33107 46.7724 7.25939 46.8828 7.22113L49.882 6.22138C51.2228 5.77576 52.2729 4.72563 52.7185 3.38489L53.7183 0.385635Z" fill="#FF6B6B"/>
</g>
<defs>
<clipPath id="clip0_252_9">
<rect width="62" height="62" fill="white"/>
</clipPath>
</defs>
</svg>
