<svg width="165" height="59" viewBox="0 0 165 59" fill="none" xmlns="http://www.w3.org/2000/svg">
<g clip-path="url(#clip0_14_46)">
<path d="M-0.00109972 56.572C0.401589 55.6903 0.779872 54.8789 1.1429 54.0613C1.35645 53.5823 1.8232 53.6189 2.20454 53.5549C7.78116 52.6549 13.3822 52.4231 19.0076 53.0332C22.1315 53.3718 25.231 53.8386 28.2268 54.8392C29.2487 55.1809 30.2372 55.5439 31.1066 56.2212C32.0127 56.9259 33.1139 57.0113 34.0047 56.3432C36.61 54.3999 39.6912 53.9637 42.7327 53.4817C49.1391 52.4627 55.5577 52.5115 62.0069 53.3017C64.1301 53.561 64.6975 54.7873 65.2497 56.5659C64.1271 56.3951 63.102 56.2395 62.074 56.0839C54.0751 54.8606 46.0885 55.1595 38.1048 56.2608C37.5252 56.3401 37.1927 56.5964 36.8541 57.0754C35.0725 59.5891 30.4263 59.6501 28.5989 57.1577C28.1566 56.5537 27.6868 56.3279 27.0065 56.2273C18.1412 54.9185 9.29735 54.946 0.471754 56.5628C0.355829 56.5842 0.233802 56.5628 -0.00415039 56.5628L-0.00109972 56.572Z" fill="white"/>
<path d="M1.99878 51.5937C2.81636 50.3307 3.54852 49.1958 4.28068 48.061C4.48508 47.7437 4.79319 47.6919 5.14097 47.6888C14.2533 47.5912 22.7922 49.5985 30.5134 54.6016C30.5714 54.6382 30.5927 54.7359 30.7331 54.9921C21.459 51.1757 11.9409 50.6052 2.00183 51.5967L1.99878 51.5937Z" fill="#4FA3F7"/>
<path d="M31.7829 54.1167C31.7402 54.1594 31.7005 54.2021 31.6609 54.2479C31.7433 54.3516 31.8226 54.4554 31.9049 54.5591C32.0544 54.3608 31.9721 54.2235 31.7829 54.1167Z" fill="#07C2C2"/>
<path d="M31.5777 53.827C30.391 51.96 28.8412 50.4194 27.1329 49.0466C21.843 44.8001 15.6379 42.8843 9.02407 42.0484C8.62748 41.9996 8.20344 41.9019 7.87397 42.2924C6.95266 43.3876 6.01611 44.4676 4.96973 45.6909C7.85261 45.9776 10.5555 46.1424 13.2279 46.5908C19.8448 47.7074 25.9065 50.1479 31.3672 54.0589C31.4648 54.1229 31.5624 54.187 31.6601 54.2511C31.6997 54.2053 31.7394 54.1626 31.779 54.1199C31.7119 54.0223 31.6418 53.9246 31.5746 53.827H31.5777Z" fill="#07C2C2"/>
<path d="M62.4649 51.5937C61.6473 50.3307 60.9151 49.1958 60.183 48.061C59.9786 47.7437 59.6705 47.6919 59.3227 47.6888C50.2103 47.5912 41.6715 49.5985 33.9502 54.6016C33.8923 54.6382 33.8709 54.7359 33.7306 54.9921C43.0046 51.1757 52.5227 50.6052 62.4618 51.5967L62.4649 51.5937Z" fill="#4FA3F7"/>
<path d="M32.6818 54.1167C32.7245 54.1594 32.7642 54.2021 32.8039 54.2479C32.7215 54.3516 32.6422 54.4554 32.5598 54.5591C32.4103 54.3608 32.4927 54.2235 32.6818 54.1167Z" fill="#4FA3F7"/>
<path d="M32.8865 53.827C34.0732 51.96 35.623 50.4194 37.3314 49.0466C42.6212 44.8001 48.8263 42.8843 55.4401 42.0484C55.8367 41.9996 56.2608 41.9019 56.5902 42.2924C57.5116 43.3876 58.4481 44.4676 59.4945 45.6909C56.6116 45.9776 53.9087 46.1424 51.2363 46.5908C44.6194 47.7074 38.5577 50.1479 33.097 54.0589C32.9994 54.1229 32.9018 54.187 32.8042 54.2511C32.7645 54.2053 32.7248 54.1626 32.6852 54.1199C32.7523 54.0223 32.8225 53.9246 32.8896 53.827H32.8865Z" fill="#07C2C2"/>
<path d="M37.7118 1.38533C37.0145 0.766051 37.0826 0.112676 37.9747 0.384529C40.4638 1.14302 42.9973 2.95252 44.2891 5.1041C45.8998 7.78564 45.5795 10.7997 43.3708 13.768C41.1896 16.6967 38.1511 18.5332 35.0669 20.3178C30.436 22.9932 25.503 25.1714 21.3572 28.64C19.4596 30.2264 18.1082 32.1483 17.9526 34.7261C17.8428 36.5169 18.4834 37.9507 19.9111 39.0398C20.6718 39.619 20.1954 40.5097 19.3413 40.0801C18.5173 39.6657 17.7564 39.1265 17.0618 38.454C16.8117 38.213 16.6835 37.8988 16.7781 37.548C17.0832 36.4223 16.7445 35.4461 16.1558 34.4943C16.1391 34.4674 16.1233 34.4404 16.1083 34.4132C15.7236 33.7152 14.9399 33.4641 14.4993 34.1282C14.0447 34.8115 14.8348 34.7658 15.0209 34.961C15.9178 35.8976 16.1527 37.3283 15.4236 38.1368C14.6091 39.0459 13.1905 39.0916 12.318 38.2374C11.4577 37.3955 11.4638 35.6901 12.5041 35.0678C13.4681 34.4943 13.819 33.7072 14.0966 32.7218C15.1857 28.8627 17.4859 25.8975 20.8172 23.6735C24.3133 21.3398 28.0168 19.3782 31.705 17.38C34.4323 15.9004 37.0437 14.2531 39.2585 12.0413C40.1157 11.1841 40.793 10.2018 41.2872 9.09743C42.3336 6.74841 41.8577 4.57938 39.9266 2.82525C39.3083 2.16735 38.5684 1.69192 37.7189 1.38983C37.7163 1.38888 37.7138 1.38734 37.7118 1.38533ZM15.0697 36.7945C15.0972 35.861 14.5237 35.5101 13.8556 35.4461C13.0502 35.3698 12.6658 35.9677 12.6597 36.6847C12.6536 37.3589 13.041 37.8714 13.7823 37.8775C14.5389 37.8836 14.9843 37.4595 15.0697 36.7914V36.7945Z" fill="white"/>
<path d="M27.7206 42.6485C28.1265 43.0374 28.6124 43.2929 29.1148 43.5348C29.9306 43.9276 29.7951 44.5472 28.9409 44.247C26.4119 43.3593 24.1086 42.1512 22.6168 39.7686C20.8322 36.9163 21.2288 34.189 23.0409 31.5501C25.036 28.6428 27.925 26.788 30.8841 25.0247C34.3589 22.9533 38.0532 21.2633 41.4303 19.018C43.2607 17.8007 44.9935 16.4707 46.4792 14.8446C47.6506 13.5634 48.4682 12.1051 48.5506 10.3235C48.639 8.35587 47.9038 6.77562 46.2748 5.64687C45.5936 5.17555 44.9792 4.65877 44.5734 3.92433C44.5714 3.92074 44.5666 3.92003 44.5637 3.92293C44.5599 3.92664 44.5624 3.93302 44.5677 3.93342C50.3254 4.38023 53.8287 11.816 50.5518 16.6476C49.0173 18.9081 46.9459 20.5921 44.6884 22.0778C41.0337 24.4878 37.1075 26.4311 33.3277 28.6276C31.0367 29.9577 28.8554 31.425 27.022 33.3744C25.9176 34.5489 25.1123 35.879 24.8286 37.4562C24.6025 38.7041 24.7268 39.9152 25.7319 40.8367C25.8105 40.9087 25.8783 40.9922 25.9282 41.0863C26.3225 41.8309 26.79 42.4946 27.7193 42.6508C27.7207 42.651 27.7215 42.6494 27.7206 42.6485Z" fill="#07C2C2"/>
<path d="M13.5536 30.1682C14.0844 27.7643 12.7543 26.1779 11.4883 24.3628C9.5816 21.6294 10.4266 17.8405 13.0563 15.6714C13.6817 15.1559 13.8678 14.7196 13.7061 13.902C13.0319 10.4365 15.4175 7.26377 18.935 6.90379C19.7434 6.82142 19.7861 6.22654 19.963 5.71403C20.6189 3.81346 21.7873 2.37049 23.7001 1.67494C27.4463 0.31434 30.9363 2.20576 31.2841 6.58652C31.5159 9.50297 31.3054 12.4499 31.3298 15.3847C31.339 16.611 30.2285 16.5195 29.6367 17.0381C29.2157 16.7727 29.3805 16.4097 29.3774 16.1168C29.3713 13.1821 29.3866 10.2504 29.3866 7.31563C29.3866 4.91475 28.2304 3.34671 26.3725 3.19418C24.0875 3.00808 22.1717 4.48766 21.7507 6.76346C21.6989 7.04717 21.6562 7.33699 21.6562 7.62375C21.6562 8.301 21.3846 8.48404 20.6799 8.47794C17.916 8.45353 16.1039 9.81108 15.6372 12.1174C15.4206 13.1821 15.6677 14.1827 16.11 15.1254C16.3876 15.7202 16.229 15.9551 15.689 16.2633C11.5096 18.6641 11.3998 23.0571 15.4541 25.6014C15.927 25.8973 16.0063 26.0651 15.6829 26.5196C14.8959 27.6331 14.2552 28.832 13.5536 30.1682Z" fill="white"/>
<path d="M51.8761 16.895C51.7541 17.7309 52.1049 18.2892 52.6815 18.8657C55.5918 21.7822 55.3691 26.2606 52.1629 28.8933C51.5588 29.3906 51.4185 29.836 51.5405 30.562C52.1141 33.9727 50.1006 36.9806 46.7174 37.5969C45.6985 37.783 45.3202 38.2253 44.9999 39.1344C44.0786 41.7427 41.1713 43.4267 38.6148 42.96C35.5275 42.3986 33.929 40.4706 33.8985 37.2583C33.8863 36.1844 33.8924 35.1106 33.8924 34.0367C33.8924 33.1276 34.0083 32.2002 33.8649 31.3155C33.6117 29.7688 34.4903 29.1984 35.8784 28.7133C35.8784 31.6999 35.8601 34.5706 35.8845 37.4443C35.9028 39.5676 37.3 41.038 39.2921 41.1021C41.3147 41.1662 43.2671 39.6256 43.5173 37.4901C43.6637 36.2424 44.0572 35.9068 45.308 35.9007C48.6332 35.8854 50.5948 32.8348 49.3074 29.7597C48.9749 28.9665 49.0024 28.6065 49.7955 28.1215C53.3984 25.9158 53.737 22.5357 50.6833 19.662C50.2867 19.2898 50.2379 19.0854 50.5826 18.6766C51.0524 18.1153 51.4521 17.4929 51.8822 16.8981L51.8761 16.895Z" fill="#07C2C2"/>
<path d="M24.5629 16.9192C23.7026 17.6696 23.2359 17.1144 22.8576 16.4768C22.2749 15.4945 21.7258 14.7013 20.2981 15.0491C19.447 15.2535 18.7545 14.5854 18.4189 13.7343C18.0772 12.874 18.2847 12.0411 18.8887 11.4401C19.4958 10.8361 20.3164 10.6256 21.1736 11.0436C21.5611 11.2327 21.918 11.611 22.3726 11.1076C22.7966 10.6348 23.3396 10.3541 23.0651 9.46636C22.7295 8.38947 23.4342 7.41936 24.508 7.07768C25.5056 6.76041 26.5093 7.18446 27.0157 8.13627C27.5312 9.10638 27.2658 10.2077 26.3537 10.8788C25.3012 11.6537 25.1609 12.2638 25.8595 13.4109C26.5886 14.6098 27.3757 15.7752 28.1261 16.9619C28.3122 17.2578 28.599 17.5506 28.056 17.8649C27.5617 18.1516 27.3513 18.0143 27.095 17.5689C26.3293 16.248 25.527 14.9484 24.7277 13.6458C24.4775 13.24 24.4531 12.7946 24.3921 12.3431C24.3494 12.0106 24.5934 11.5103 24.1145 11.3913C23.7271 11.2968 23.483 11.7239 23.2298 11.9771C22.1102 13.1028 22.101 13.722 23.0986 14.9515C23.6142 15.586 24.084 16.2602 24.569 16.9131L24.5629 16.9192ZM25.1212 7.90747C24.447 8.03559 23.9955 8.40473 23.9772 9.12163C23.962 9.79583 24.3616 10.2321 25.0144 10.2626C25.7191 10.2961 26.1828 9.8843 26.2256 9.15824C26.2683 8.41998 25.8107 8.0539 25.1212 7.90442V7.90747ZM20.2584 11.855C19.3982 11.8489 19.2365 12.4591 19.2578 13.0967C19.2792 13.777 19.7337 14.14 20.4079 14.1217C21.1706 14.1003 21.5336 13.597 21.5153 12.9014C21.494 12.1449 20.9601 11.8581 20.2584 11.852V11.855Z" fill="white"/>
<path d="M40.7166 32.5452C40.6434 32.8869 40.3749 33.2652 40.8051 33.4604C41.1864 33.6343 41.4091 33.3201 41.6471 33.0974C43.0412 31.7886 43.1053 31.0229 41.943 29.4854C41.644 29.0918 41.3237 28.7135 41.04 28.3078C40.8691 28.0638 40.4939 27.7892 40.9393 27.4872C41.2901 27.2492 41.6867 27.0814 42.0253 27.539C42.1962 27.7709 42.3853 27.9936 42.5318 28.2407C43.0412 29.0979 43.511 29.8209 44.7923 29.4823C45.6312 29.2596 46.3787 29.8118 46.7661 30.6568C47.123 31.4439 47.0437 32.2066 46.4915 32.8625C45.9119 33.5489 45.1492 33.7929 44.2615 33.558C42.8185 33.1736 41.8545 33.8387 41.8759 35.3976C41.8911 36.4348 41.5738 37.0968 40.5915 37.3409C39.6153 37.5819 38.7703 37.2829 38.2517 36.389C37.7331 35.4921 37.9435 34.6319 38.6025 33.8814C39.8502 32.4598 39.8563 32.4445 38.9076 30.8399C38.4256 30.0223 37.9588 29.1956 37.4829 28.378C37.3243 28.1065 37.2327 27.8563 37.5805 27.6489C37.7971 27.5207 38.0747 27.3285 38.2425 27.5787C39.2797 29.1345 40.3475 30.6812 40.7227 32.5543L40.7166 32.5452ZM45.9912 31.5476C45.8539 30.9222 45.5977 30.4158 44.8808 30.4311C44.1669 30.4463 43.6727 30.8551 43.6666 31.5568C43.6605 32.1913 44.1059 32.6367 44.7649 32.6642C45.5031 32.6947 45.8478 32.2035 45.9912 31.5476ZM40.0028 34.2139C39.4506 34.3054 38.9625 34.6197 38.9106 35.2664C38.8588 35.9131 39.2309 36.3616 39.9173 36.4134C40.6586 36.4684 41.0918 36.0748 41.1468 35.3518C41.2047 34.6258 40.6892 34.3725 39.9997 34.2139H40.0028Z" fill="#07C2C2"/>
<path d="M37.7122 1.38519C38.5633 1.6872 39.3046 2.16311 39.9239 2.82205C39.6158 3.21254 39.1704 3.06916 38.7769 3.11797C37.1081 3.31931 35.9123 4.56093 35.8726 6.25101C35.8299 8.0204 35.7323 9.80504 35.894 11.5592C36.0404 13.1303 35.3082 13.8868 33.9629 14.4451C33.9629 11.3914 33.7921 8.39563 34.0209 5.42733C34.1825 3.32236 35.7018 2.02583 37.7122 1.38519Z" fill="#07C2C2"/>
<path d="M27.7213 42.6491C26.7298 42.4843 26.263 41.74 25.8512 40.9407C28.4748 40.4892 29.2344 39.5984 29.2344 36.9779C29.2344 36.1115 29.332 35.2329 29.213 34.3818C28.9995 32.8656 29.7652 32.0968 31.1258 31.5782C31.1258 33.9913 31.2997 36.3739 31.0709 38.7137C30.8818 40.6387 29.5791 41.9657 27.7182 42.6491H27.7213Z" fill="white"/>
<path d="M23.5138 20.3304C22.6383 20.9741 22.0404 21.5049 21.1953 21.5049C20.6493 21.5049 20.6065 22.0204 20.3411 22.298C19.3802 23.3109 18.0562 23.4237 17.1684 22.533C16.2959 21.6605 16.3478 20.2938 17.2874 19.4548C18.2484 18.5945 19.5632 18.7105 20.4021 19.8331C20.7011 20.2327 20.9818 20.3426 21.418 20.3334C22.0251 20.3182 22.6291 20.3304 23.5169 20.3304H23.5138ZM18.6328 22.1486C19.2978 22.054 19.7951 21.752 19.7798 20.9924C19.7676 20.3243 19.3588 19.8758 18.7121 19.888C18.047 19.8972 17.5315 20.2907 17.5315 21.0351C17.5315 21.7123 17.9708 22.0509 18.6328 22.1516V22.1486Z" fill="white"/>
<path d="M43.9261 24.1163C44.2831 23.7258 44.6766 23.4452 45.1861 23.2621C45.2898 23.5428 45.3417 23.8296 45.4911 24.0553C45.9121 24.696 46.4948 24.9644 47.169 24.4763C47.8646 23.9699 47.8981 23.3323 47.3337 22.6673C47.1477 22.4507 46.4857 22.4263 47.0561 21.8924C47.5473 21.4317 47.8493 21.688 48.1757 22.0602C49.0055 22.9998 48.9323 24.3543 48.0018 25.1627C47.0165 26.0169 45.8176 25.9681 44.9542 24.9553C44.6583 24.6075 44.2983 24.3817 43.9261 24.1163Z" fill="#07C2C2"/>
<path d="M39.718 7.38017C39.9499 7.39543 40.2336 7.31306 40.3099 7.65778C40.3892 8.00861 40.2092 8.20691 39.898 8.29843C38.9371 8.57604 38.5008 9.0855 38.9767 10.1166C39.1445 10.4827 38.8303 10.742 38.5191 10.861C38.1561 11.0013 38.0219 10.6657 37.8876 10.4247C37.2012 9.20447 38.2934 7.39543 39.7211 7.38017H39.718Z" fill="#07C2C2"/>
<path d="M21.457 29.6348C22.1068 31.1632 21.3868 32.6672 20.2276 32.6428C19.9012 32.6367 19.3459 32.3865 19.77 32.1547C20.7462 31.6239 21.094 30.7361 21.457 29.6348Z" fill="white"/>
<path d="M46.495 11.7307C46.3028 12.9418 45.6591 13.7807 44.988 14.6959C44.7805 13.8021 45.4761 12.4293 46.495 11.7307Z" fill="#07C2C2"/>
<path d="M44.1362 3.94459C44.0965 3.93239 44.0477 3.92628 44.0142 3.90493C43.9958 3.89273 44.002 3.84697 43.9958 3.81951C44.0355 3.86832 44.0752 3.91713 44.1148 3.96594L44.1362 3.94764V3.94459Z" fill="white"/>
<path d="M69.2373 41.1842C69.3472 32.6728 77.0318 30.3726 81.9098 32.9412C83.9446 34.012 83.9538 34.4788 82.4132 36.0956C81.7329 36.8095 81.3149 36.4007 80.7353 36.0651C78.8134 34.9577 76.8152 34.8266 75.0214 36.1994C72.8188 37.8864 72.5992 40.3056 73.133 42.8224C73.5876 44.9639 74.9177 46.3001 77.1203 46.6723C78.5541 46.9133 79.8628 46.5503 80.958 45.629C82.3247 44.4819 82.6786 46.0012 83.3437 46.5167C84.2283 47.2001 83.365 47.6455 82.9257 48.0512C78.5968 52.0354 71.2081 49.6406 69.5912 43.7254C69.3502 42.8468 69.1763 41.9468 69.2282 41.1811L69.2373 41.1842Z" fill="white"/>
<path d="M118.744 38.2742C120.056 37.2065 121.523 36.6238 123.237 36.7733C125.233 36.9471 126.611 38.0728 126.868 40.0527C127.246 42.9783 126.978 45.9344 127.032 48.8753C127.045 49.4641 126.737 49.6166 126.191 49.6807C123.802 49.9583 123.573 49.7813 123.57 47.4049C123.567 45.5256 123.564 43.6495 123.57 41.7703C123.576 40.4219 122.948 39.6531 121.575 39.6165C120.007 39.5768 118.808 40.5744 118.796 41.9319C118.774 44.1162 118.732 46.3005 118.799 48.4817C118.854 50.2328 117.594 49.5434 116.785 49.6501C115.916 49.7661 115.245 49.7325 115.284 48.4512C115.382 45.2541 115.294 42.054 115.351 38.8569C115.364 38.2132 114.845 37.2492 116.062 37.0112C117.441 36.7428 118.134 37.0478 118.741 38.2711L118.744 38.2742Z" fill="white"/>
<path d="M85.0278 43.3716C85.1071 39.2898 87.7703 36.6571 91.7331 36.7425C95.5404 36.8249 98.2402 39.6803 98.1701 43.5547C98.1029 47.307 95.1652 50.0312 91.303 49.9245C87.5354 49.8177 84.9515 47.1239 85.0278 43.3716ZM88.4598 43.3808C88.4354 45.6352 89.6343 47.0721 91.5532 47.0873C93.411 47.1026 94.6526 45.6169 94.6587 43.3716C94.6648 41.0714 93.5147 39.6956 91.5684 39.6803C89.7014 39.6651 88.4811 41.1141 88.4567 43.3838L88.4598 43.3808Z" fill="white"/>
<path d="M132.676 44.3633C133.576 46.9411 135.726 47.7495 138.127 46.5781C138.707 46.2943 139.149 45.8856 139.872 46.4835C141.196 47.5817 141.23 47.96 139.75 48.8752C137.328 50.3731 133.905 50.248 131.706 48.5762C129.662 47.0235 128.801 44.0643 129.585 41.279C130.452 38.204 133.426 36.3064 136.614 36.7976C139.68 37.2705 141.663 39.8117 141.611 43.0942C141.596 44.0979 141.215 44.3999 140.244 44.3785C137.764 44.3236 135.284 44.3602 132.679 44.3602L132.676 44.3633ZM135.504 42.1058C136.211 42.1058 136.922 42.0783 137.63 42.1119C138.39 42.1515 138.466 41.8617 138.234 41.2058C137.892 40.2418 137.233 39.6835 136.272 39.5249C135.107 39.3297 134.039 39.5768 133.289 40.5804C132.993 40.974 132.627 41.4621 132.862 41.941C133.06 42.3376 133.6 42.0814 133.984 42.1027C134.491 42.1302 134.997 42.1088 135.504 42.1088V42.1058Z" fill="white"/>
<path d="M103.945 38.3412C105.284 37.2705 106.648 36.6908 108.249 36.7549C110.516 36.8464 112.075 38.1338 112.191 40.376C112.334 43.1613 112.246 45.9588 112.282 48.7501C112.291 49.4121 111.999 49.5891 111.37 49.6379C108.927 49.8301 108.872 49.7996 108.872 47.4231C108.872 45.5439 108.899 43.6647 108.856 41.7885C108.823 40.2632 108.081 39.528 106.761 39.5768C105.168 39.6347 104.058 40.6018 104.052 41.9807C104.042 44.165 103.994 46.3493 104.088 48.5274C104.149 49.885 103.295 49.7233 102.508 49.6501C101.742 49.5769 100.577 50.2053 100.616 48.5396C100.69 45.3425 100.607 42.1424 100.671 38.9453C100.684 38.3016 100.122 37.2125 101.266 37.063C102.291 36.9288 103.682 36.4529 103.951 38.3412H103.945Z" fill="white"/>
<path d="M149.988 36.6967C151.355 36.6449 152.615 37.0292 153.71 37.8133C154.158 38.1336 155.183 38.5302 154.402 39.2745C153.817 39.8328 153.347 41.0897 152.087 40.3606C150.766 39.5949 149.417 39.3325 148.115 40.3392C146.766 41.3795 146.461 44.1129 147.468 45.6504C148.426 47.1209 150.269 47.4961 152.023 46.3795C153.365 45.5254 153.935 46.648 154.506 47.2795C155.171 48.0117 154.192 48.4082 153.734 48.7591C151.547 50.4339 148.246 50.3851 145.915 48.6645C143.496 46.8799 142.849 44.0427 143.749 41.0927C144.594 38.3258 146.956 36.7059 149.991 36.6967H149.988Z" fill="white"/>
<path d="M157.881 43.6369C157.881 42.7736 157.863 41.9102 157.887 41.0469C157.912 40.269 157.878 39.6466 156.792 39.7442C155.926 39.8205 156.011 39.07 156.06 38.5545C156.112 38.0267 155.715 37.0474 156.585 37.081C158.168 37.1451 157.896 36.1292 158.009 35.2079C158.104 34.43 157.78 33.408 159.156 33.3104C161.087 33.17 161.353 33.2585 161.2 35.1987C161.072 36.8125 161.673 37.2915 163.144 37.0444C164.245 36.8614 164.376 37.4806 164.358 38.3867C164.339 39.2622 164.242 39.9547 163.134 39.7564C161.493 39.4605 161.042 40.1896 161.2 41.7241C161.325 42.9291 161.255 44.1586 161.237 45.3758C161.216 46.6022 161.832 47.1147 162.957 46.7608C164.403 46.3062 164.208 47.554 164.553 48.1946C165.014 49.0488 164.239 49.2318 163.705 49.4515C160.493 50.7877 157.973 49.1922 157.878 45.7724C157.86 45.0616 157.878 44.3508 157.878 43.64H157.884L157.881 43.6369Z" fill="white"/>
<path d="M94.392 15.3525C94.392 13.4767 94.4273 11.7998 94.3769 10.128C94.3518 9.27189 94.5633 8.90177 95.515 8.88918C97.781 8.86148 97.7861 8.81112 97.781 11.0696C97.7685 15.7629 97.7609 20.4561 97.7156 25.1494C97.7105 25.6076 98.058 26.4486 97.2322 26.4385C96.4013 26.4284 95.2456 27.0906 94.7722 25.8443C94.5003 25.1292 94.3291 25.3407 93.8834 25.6328C90.2552 28.0222 86.5137 26.3705 85.7256 22.0726C85.4613 20.6248 85.5695 19.2148 86.0001 17.83C87.1935 13.9928 91.0232 12.7641 94.392 15.3474V15.3525ZM94.3266 20.4662C94.3266 20.1212 94.2938 19.7738 94.3316 19.4314C94.4877 18.0692 94.0698 17.1225 92.5968 16.843C91.2322 16.5837 90.0009 17.1628 89.4546 18.4519C88.9183 19.7159 88.8452 21.0302 89.3136 22.342C89.7089 23.4473 90.5498 23.9609 91.6854 24.0189C93.6644 24.1145 94.3417 23.198 94.3266 20.4662Z" fill="white"/>
<path d="M72.3403 18.0264C72.3403 15.5564 72.3705 13.0838 72.3251 10.6138C72.31 9.77037 72.5895 9.50348 73.4305 9.51607C76.4443 9.56139 79.4607 9.59412 82.4745 9.5211C83.9248 9.48585 83.527 10.4502 83.6126 11.2131C83.7133 12.1019 83.5069 12.5903 82.4317 12.5375C80.5585 12.4443 78.6751 12.5299 76.7993 12.4619C75.9433 12.4292 75.7293 12.7188 75.7167 13.5496C75.6688 16.5358 75.6361 16.5358 78.5996 16.566C79.292 16.5736 79.9894 16.6315 80.6743 16.566C81.7645 16.4653 82.2454 16.7473 82.2656 17.9961C82.2882 19.3533 81.6059 19.3734 80.6214 19.3407C79.2895 19.2953 77.9525 19.3583 76.6181 19.3331C75.9936 19.3205 75.6789 19.5245 75.7494 20.1791C75.7595 20.2773 75.7494 20.3755 75.7494 20.4762C75.6823 22.613 76.7095 23.6848 78.8312 23.6915C80.0675 23.694 81.3063 23.7595 82.5375 23.6764C83.7939 23.5908 83.6907 24.3713 83.7083 25.1921C83.7259 26.0104 83.7007 26.592 82.5778 26.5669C79.5161 26.4964 76.4494 26.514 73.3852 26.5543C72.5215 26.5669 72.3075 26.2572 72.3226 25.4389C72.3705 22.9689 72.3403 20.4963 72.3403 18.0264Z" fill="white"/>
<path d="M108.867 25.0438C107.27 26.4337 105.702 27.0556 103.866 26.6854C102.202 26.3481 101.059 25.1949 100.948 23.3846C100.779 20.625 100.825 17.8504 100.769 15.0833C100.757 14.4337 101.076 14.2801 101.681 14.2347C104.045 14.0661 104.088 14.0786 104.11 16.453C104.128 18.2331 104.11 20.0132 104.158 21.7933C104.198 23.2939 104.876 23.9662 106.205 23.946C107.718 23.9209 108.675 23.0522 108.688 21.6422C108.705 19.565 108.756 17.4853 108.67 15.4131C108.612 14.0635 109.423 14.1416 110.294 14.202C111.145 14.2599 112.22 13.8218 112.165 15.4609C112.062 18.5226 112.17 21.5919 112.094 24.6561C112.079 25.2604 112.689 26.3304 111.483 26.4488C110.453 26.5495 109.093 27.0178 108.861 25.0438H108.867Z" fill="white"/>
<path d="M122.088 13.9619C123.454 13.9101 124.714 14.2945 125.809 15.0785C126.258 15.3988 127.283 15.7954 126.502 16.5398C125.916 17.098 125.446 18.3549 124.187 17.6258C122.866 16.8601 121.517 16.5977 120.215 17.6044C118.866 18.6447 118.561 21.3781 119.568 22.9157C120.526 24.3861 122.368 24.7613 124.122 23.6448C125.465 22.7906 126.035 23.9132 126.606 24.5447C127.271 25.2769 126.291 25.6735 125.834 26.0243C123.647 27.6991 120.346 27.6503 118.015 25.9297C115.596 24.1451 114.949 21.308 115.849 18.358C116.694 15.591 119.055 13.9711 122.091 13.9619H122.088Z" fill="white"/>
<path d="M132.619 26.7668C134.036 26.7668 135.184 25.6182 135.184 24.2012C135.184 22.7843 134.036 21.6356 132.619 21.6356C131.202 21.6356 130.053 22.7843 130.053 24.2012C130.053 25.6182 131.202 26.7668 132.619 26.7668Z" fill="white"/>
</g>
<defs>
<clipPath id="clip0_14_46">
<rect width="164.694" height="59" fill="white"/>
</clipPath>
</defs>
</svg>
